<svg width="165" height="64" fill="none" xmlns="http://www.w3.org/2000/svg"><path d="M79.8425 21.6835c-2.5516 0-4.2772-.646-5.7694-2.1603-.096-.0971-.0948-.2531.0023-.3487l1.5984-1.576c.0967-.0951.252-.0948.3476.0012 1.0213 1.0209 2.1409 1.4374 3.8657 1.4374 1.9174 0 3.0172-.7922 3.0172-2.1729 0-.6384-.1865-1.1432-.5398-1.4591-.3658-.3453-.724-.48-1.6022-.6057l-1.8646-.2664c-1.3106-.1809-2.394-.6407-3.1303-1.3294-.8298-.7822-1.2326-1.8283-1.2326-3.1995 0-2.96813 2.1706-4.88634 5.5301-4.88634 2.1584 0 3.6757.55768 5.0743 1.86454.0491.04568.0773.10963.0784.17701.0012.067-.0255.13171-.073.17892l-1.5319 1.50975c-.0951.09402-.247.09479-.3433.00266-.8352-.79751-1.8444-1.15306-3.2708-1.15306-1.6277 0-2.6392.85005-2.6392 2.21781 0 .54321.1736.97451.5166 1.28171.3643.3236.9658.5691 1.6487.6727l1.7975.2661c1.458.2211 2.3503.5793 3.0812 1.2371.8953.7804 1.3696 1.9655 1.3696 3.4246-.0003 2.9224-2.383 4.8859-5.9305 4.8859zM93.6511 21.5503h-2.3975c-.1362 0-.2462-.1104-.2462-.2463V7.89778h-4.1049c-.1359 0-.2463-.11039-.2463-.24667V5.49763c0-.13628.1104-.24667.2463-.24667h11.0997c.1359 0 .2467.11039.2467.24667v2.15348c0 .13628-.1108.24667-.2467.24667h-4.1044V21.304c-.0004.1359-.1108.2463-.2467.2463zM110.389 21.5503h-10.1c-.136 0-.247-.1104-.247-.2463V5.49763c0-.13628.111-.24667.247-.24667h10.1c.136 0 .246.11039.246.24667v2.15348c0 .13628-.11.24667-.246.24667h-7.456V12.022h6.324c.136 0 .247.1104.247.2467v2.1314c0 .1359-.111.2463-.247.2463h-6.324v4.2574h7.456c.136 0 .246.1108.246.2467v2.1535c.001.1359-.109.2463-.246.2463zM116.073 21.5503h-2.398c-.137 0-.247-.1104-.247-.2463V5.49763c0-.13628.11-.24667.247-.24667h10.1c.137 0 .247.11039.247.24667v2.15348c0 .13628-.11.24667-.247.24667h-7.456v4.32412h6.325c.136 0 .246.1104.246.2463v2.1534c0 .1359-.11.2467-.246.2467h-6.325v6.4357c0 .1359-.11.2463-.246.2463zM128.615 21.5503h-2.398c-.136 0-.247-.1104-.247-.2463V5.49763c0-.13628.111-.24667.247-.24667h10.101c.136 0 .247.11039.247.24667v2.15348c0 .13628-.111.24667-.247.24667h-7.456v4.32412h6.324c.136 0 .246.1104.246.2463v2.1534c0 .1359-.11.2467-.246.2467h-6.324v6.4357c0 .1359-.111.2463-.247.2463zM149.305 21.5503h-10.102c-.136 0-.246-.1104-.246-.2463V5.49763c0-.13628.11-.24667.246-.24667h10.102c.135 0 .246.11039.246.24667v2.15348c0 .13628-.111.24667-.246.24667h-7.457V12.022h6.324c.137 0 .247.1104.247.2467v2.1314c0 .1359-.11.2463-.247.2463h-6.324v4.2574h7.457c.135 0 .246.1108.246.2467v2.1535c0 .1359-.111.2463-.246.2463zM164.49 21.5503h-2.198c-.083 0-.16-.0415-.206-.1112l-6.852-10.4324V21.304c0 .1359-.11.2463-.246.2463h-2.398c-.135 0-.246-.1104-.246-.2463V5.49763c0-.13628.111-.24667.246-.24667h2.198c.083 0 .161.04187.206.11115l6.851 10.41179V5.49763c0-.13628.11-.24667.247-.24667h2.398c.136 0 .246.11039.246.24667V21.304c0 .1359-.11.2463-.246.2463zM79.8425 42.6172c-2.5516 0-4.2772-.646-5.7694-2.1603-.096-.0971-.0948-.2532.0023-.3491l1.5984-1.576c.0967-.0952.252-.0944.3472.0011 1.0217 1.021 2.1413 1.4375 3.8661 1.4375 1.9174 0 3.0172-.7922 3.0172-2.1729 0-.6388-.1865-1.1432-.5398-1.4591-.3658-.3453-.724-.4801-1.6022-.6053l-1.8646-.2665c-1.3106-.1808-2.394-.6407-3.1303-1.3293-.8298-.7823-1.2326-1.8284-1.2326-3.1996 0-2.9684 2.1706-4.8863 5.5301-4.8863 2.1584 0 3.6757.5573 5.0743 1.8646.0491.046.0773.1096.0784.177.0012.067-.0255.1317-.073.1789l-1.5319 1.5094c-.0951.094-.247.0947-.3433.003-.8352-.7971-1.8444-1.1527-3.2708-1.1527-1.6277 0-2.6392.8497-2.6392 2.2174 0 .5433.1736.9746.5166 1.2818.3643.3235.9658.5687 1.6487.6726l1.7975.2661c1.4572.2212 2.3503.5794 3.0812 1.2372.8953.7804 1.3696 1.9658 1.3696 3.4245-.0003 2.9221-2.383 4.886-5.9305 4.886zM93.6511 42.4839h-2.3975c-.1362 0-.2462-.1108-.2462-.2467V28.8311h-4.1049c-.1359 0-.2463-.1104-.2463-.2467v-2.1535c0-.1363.1104-.2467.2463-.2467h11.0997c.1359 0 .2467.1104.2467.2467v2.1535c0 .1363-.1108.2467-.2467.2467h-4.1044v13.4061c-.0004.1363-.1108.2467-.2467.2467zM110.389 42.4839h-10.1c-.136 0-.247-.1107-.247-.2466v-15.806c0-.1363.111-.2467.247-.2467h10.1c.136 0 .246.1104.246.2467v2.1535c0 .1363-.11.2466-.246.2466h-7.456v4.1243h6.324c.136 0 .247.1104.247.2463v2.1314c0 .1359-.111.2466-.247.2466h-6.324v4.2575h7.456c.136 0 .246.1104.246.2463v2.1535c.001.1362-.109.2466-.246.2466zM125.573 42.4839h-2.197c-.083 0-.16-.0419-.206-.1111l-6.851-10.4324v10.2972c0 .1359-.11.2467-.246.2467h-2.398c-.136 0-.246-.1108-.246-.2467V26.4313c0-.1363.11-.2467.246-.2467h2.198c.083 0 .16.0415.206.1112l6.85 10.4118V26.4313c0-.1363.111-.2467.247-.2467h2.397c.136 0 .247.1104.247.2467v15.8059c0 .1363-.11.2467-.247.2467z" fill="black"/><path d="M4.33892 4.02905c0 .1713-.13895.30987-.30987.30987H.309869C.138946 4.33892 0 4.20035 0 4.02905V.309868C0 .138565.138946 0 .309869 0H4.02905c.17131 0 .30987.138565.30987.309868V4.02905z" fill="#995140"/><path d="M9.76274 4.02905c0 .1713-.13894.30987-.30986.30987H5.7337c-.17093 0-.30987-.13857-.30987-.30987V.309868C5.42383.138565 5.56277 0 5.7337 0h3.71918c.17092 0 .30986.138565.30986.309868V4.02905z" fill="#803729"/><path d="M15.1866 4.02905c0 .1713-.139.30987-.3099.30987h-3.7192c-.1713 0-.3098-.13857-.3098-.30987V.309868C10.8477.138565 10.9862 0 11.1575 0h3.7192c.1713 0 .3099.138565.3099.309868V4.02905zM20.6104 4.02905c0 .1713-.1389.30987-.3099.30987h-3.7191c-.1714 0-.3099-.13857-.3099-.30987V.309868C16.2715.138565 16.4104 0 16.5814 0h3.7191c.1713 0 .3099.138565.3099.309868V4.02905z" fill="#995140"/><path d="M26.0339 4.02905c0 .1713-.1386.30987-.3099.30987h-3.7192c-.1713 0-.3099-.13857-.3099-.30987V.309868c0-.171303.139-.309868.3099-.309868h3.7192c.1713 0 .3099.138565.3099.309868V4.02905zM31.4577 4.02905c0 .1713-.1389.30987-.3099.30987h-3.7192c-.1709 0-.3098-.13857-.3098-.30987V.309868C27.1188.138565 27.2577 0 27.4286 0h3.7192c.1713 0 .3099.138565.3099.309868V4.02905z" fill="#803729"/><path d="M36.8815 4.02905c0 .1713-.1389.30987-.3098.30987h-3.7192c-.1713 0-.3099-.13857-.3099-.30987V.309868c0-.171303.139-.309868.3099-.309868h3.7192c.1709 0 .3098.138565.3098.309868V4.02905z" fill="#946A59"/><path d="M42.3055 4.02905c0 .1713-.139.30987-.3099.30987h-3.7192c-.1713 0-.3098-.13857-.3098-.30987V.309868C37.9666.138565 38.1051 0 38.2764 0h3.7192c.1713 0 .3099.138565.3099.309868V4.02905zM47.7289 4.02905c0 .1713-.1389.30987-.3099.30987h-3.7191c-.1713 0-.3099-.13857-.3099-.30987V.309868C43.39.138565 43.5286 0 43.6999 0h3.7191c.1713 0 .3099.138565.3099.309868V4.02905z" fill="#995140"/><path d="M53.1528 4.02905c0 .1713-.1386.30987-.3099.30987h-3.7192c-.1713 0-.3099-.13857-.3099-.30987V.309868c0-.171303.139-.309868.3099-.309868h3.7192c.1713 0 .3099.138565.3099.309868V4.02905z" fill="#6F3226"/><path d="M58.5762 4.02905c0 .1713-.1389.30987-.3098.30987h-3.7192c-.171 0-.3099-.13857-.3099-.30987V.309868C54.2373.138565 54.3762 0 54.5472 0h3.7192c.1709 0 .3098.138565.3098.309868V4.02905z" fill="#995140"/><path d="M64.0004 4.02905c0 .1713-.139.30987-.3099.30987h-3.7191c-.1713 0-.3099-.13857-.3099-.30987V.309868C59.6615.138565 59.8004 0 59.9714 0h3.7191c.1709 0 .3099.138565.3099.309868V4.02905z" fill="#946A59"/><path d="M4.33892 9.4529c0 .1713-.13895.30986-.30987.30986H.309869C.138946 9.76276 0 9.62382 0 9.4529V5.73372c0-.17131.138946-.30987.309869-.30987H4.02905c.17131 0 .30987.13856.30987.30987V9.4529zM9.76274 9.4529c0 .1713-.13894.30986-.30986.30986H5.7337c-.17093 0-.30987-.13856-.30987-.30986V5.73372c0-.17131.13894-.30987.30987-.30987h3.71918c.17092 0 .30986.13856.30986.30987V9.4529z" fill="#995140"/><path d="M15.1866 9.4529c0 .1713-.139.30986-.3099.30986h-3.7192c-.1713 0-.3098-.13856-.3098-.30986V5.73372c0-.17131.1385-.30987.3098-.30987h3.7192c.1713 0 .3099.13856.3099.30987V9.4529zM20.6104 9.4529c0 .1713-.1389.30986-.3099.30986h-3.7191c-.1714 0-.3099-.13856-.3099-.30986V5.73372c0-.17131.1389-.30987.3099-.30987h3.7191c.1713 0 .3099.13856.3099.30987V9.4529z" fill="#946A59"/><path d="M26.0339 9.4529c0 .1713-.1386.30986-.3099.30986h-3.7192c-.1713 0-.3099-.13856-.3099-.30986V5.73372c0-.17131.139-.30987.3099-.30987h3.7192c.1713 0 .3099.13856.3099.30987V9.4529z" fill="#995140"/><path d="M31.4577 9.4529c0 .1713-.1389.30986-.3099.30986h-3.7192c-.1709 0-.3098-.13856-.3098-.30986V5.73372c0-.17131.1389-.30987.3098-.30987h3.7192c.1713 0 .3099.13856.3099.30987V9.4529z" fill="#803729"/><path d="M36.8815 9.4529c0 .1713-.1389.30986-.3098.30986h-3.7192c-.1713 0-.3099-.13856-.3099-.30986V5.73372c0-.17131.139-.30987.3099-.30987h3.7192c.1709 0 .3098.13856.3098.30987V9.4529zM42.3055 9.4529c0 .1713-.139.30986-.3099.30986h-3.7192c-.1713 0-.3098-.13856-.3098-.30986V5.73372c0-.17131.1385-.30987.3098-.30987h3.7192c.1713 0 .3099.13856.3099.30987V9.4529z" fill="#995140"/><path d="M47.7289 9.4529c0 .1713-.1389.30986-.3099.30986h-3.7191c-.1713 0-.3099-.13856-.3099-.30986V5.73372c0-.17131.1386-.30987.3099-.30987h3.7191c.1713 0 .3099.13856.3099.30987V9.4529z" fill="#E5C89E"/><path d="M53.1528 9.4529c0 .1713-.1386.30986-.3099.30986h-3.7192c-.1713 0-.3099-.13856-.3099-.30986V5.73372c0-.17131.139-.30987.3099-.30987h3.7192c.1713 0 .3099.13856.3099.30987V9.4529z" fill="#E6D1A2"/><path d="M58.5762 9.4529c0 .1713-.1389.30986-.3098.30986h-3.7192c-.171 0-.3099-.13856-.3099-.30986V5.73372c0-.17131.1389-.30987.3099-.30987h3.7192c.1709 0 .3098.13856.3098.30987V9.4529zM64.0004 9.4529c0 .1713-.139.30986-.3099.30986h-3.7191c-.1713 0-.3099-.13856-.3099-.30986V5.73372c0-.17131.1389-.30987.3099-.30987h3.7191c.1709 0 .3099.13856.3099.30987V9.4529zM4.33892 14.8767c0 .1713-.13895.3099-.30987.3099H.309869C.138946 15.1866 0 15.0477 0 14.8767v-3.7195c0-.1709.138946-.3095.309869-.3095H4.02905c.17131 0 .30987.1386.30987.3095v3.7195z" fill="#995140"/><path d="M9.76274 14.8767c0 .1713-.13894.3099-.30986.3099H5.7337c-.17093 0-.30987-.1386-.30987-.3099v-3.7195c0-.1709.13894-.3095.30987-.3095h3.71918c.17092 0 .30986.1386.30986.3095v3.7195z" fill="#803729"/><path d="M15.1866 14.8767c0 .1713-.139.3099-.3099.3099h-3.7192c-.1713 0-.3098-.1386-.3098-.3099v-3.7195c0-.1709.1385-.3095.3098-.3095h3.7192c.1713 0 .3099.1386.3099.3095v3.7195z" fill="#995140"/><path d="M20.6104 14.8767c0 .1713-.1389.3099-.3099.3099h-3.7191c-.1714 0-.3099-.1386-.3099-.3099v-3.7195c0-.1709.1389-.3095.3099-.3095h3.7191c.1713 0 .3099.1386.3099.3095v3.7195z" fill="#803729"/><path d="M26.0339 14.8767c0 .1713-.1386.3099-.3099.3099h-3.7192c-.1713 0-.3099-.1386-.3099-.3099v-3.7195c0-.1709.139-.3095.3099-.3095h3.7192c.1713 0 .3099.1386.3099.3095v3.7195z" fill="#946A59"/><path d="M31.4577 14.8767c0 .1713-.1389.3099-.3099.3099h-3.7192c-.1709 0-.3098-.1386-.3098-.3099v-3.7195c0-.1709.1389-.3095.3098-.3095h3.7192c.1713 0 .3099.1386.3099.3095v3.7195zM36.8815 14.8767c0 .1713-.1389.3099-.3098.3099h-3.7192c-.1713 0-.3099-.1386-.3099-.3099v-3.7195c0-.1709.139-.3095.3099-.3095h3.7192c.1709 0 .3098.1386.3098.3095v3.7195z" fill="#995140"/><path d="M42.3055 14.8767c0 .1713-.139.3099-.3099.3099h-3.7192c-.1713 0-.3098-.1386-.3098-.3099v-3.7195c0-.1709.1385-.3095.3098-.3095h3.7192c.1713 0 .3099.1386.3099.3095v3.7195z" fill="#E5C89E"/><path d="M47.7289 14.8767c0 .1713-.1389.3099-.3099.3099h-3.7191c-.1713 0-.3099-.1386-.3099-.3099v-3.7195c0-.1709.1386-.3095.3099-.3095h3.7191c.1713 0 .3099.1386.3099.3095v3.7195z" fill="#6F3226"/><path d="M53.1528 14.8767c0 .1713-.1386.3099-.3099.3099h-3.7192c-.1713 0-.3099-.1386-.3099-.3099v-3.7195c0-.1709.139-.3095.3099-.3095h3.7192c.1713 0 .3099.1386.3099.3095v3.7195z" fill="#995140"/><path d="M58.5762 14.8767c0 .1713-.1389.3099-.3098.3099h-3.7192c-.171 0-.3099-.1386-.3099-.3099v-3.7195c0-.1709.1389-.3095.3099-.3095h3.7192c.1709 0 .3098.1386.3098.3095v3.7195z" fill="#D8C599"/><path d="M64.0004 14.8767c0 .1713-.139.3099-.3099.3099h-3.7191c-.1713 0-.3099-.1386-.3099-.3099v-3.7195c0-.1709.1389-.3095.3099-.3095h3.7191c.1709 0 .3099.1386.3099.3095v3.7195z" fill="#803729"/><path d="M4.33892 20.3002c0 .1713-.13895.3099-.30987.3099H.309869C.138946 20.6101 0 20.4715 0 20.3002V16.581c0-.1709.138946-.3099.309869-.3099H4.02905c.17131 0 .30987.139.30987.3099v3.7192z" fill="#995140"/><path d="M9.76274 20.3002c0 .1713-.13894.3099-.30986.3099H5.7337c-.17093 0-.30987-.1386-.30987-.3099V16.581c0-.1709.13894-.3099.30987-.3099h3.71918c.17092 0 .30986.139.30986.3099v3.7192z" fill="#803729"/><path d="M15.1866 20.3002c0 .1713-.139.3099-.3099.3099h-3.7192c-.1713 0-.3098-.1386-.3098-.3099V16.581c0-.1709.1385-.3099.3098-.3099h3.7192c.1713 0 .3099.139.3099.3099v3.7192z" fill="#995140"/><path d="M20.6104 20.3002c0 .1713-.1389.3099-.3099.3099h-3.7191c-.1714 0-.3099-.1386-.3099-.3099V16.581c0-.1709.1389-.3099.3099-.3099h3.7191c.1713 0 .3099.139.3099.3099v3.7192z" fill="#946A59"/><path d="M26.0339 20.3002c0 .1713-.1386.3099-.3099.3099h-3.7192c-.1713 0-.3099-.1386-.3099-.3099V16.581c0-.1709.139-.3099.3099-.3099h3.7192c.1713 0 .3099.139.3099.3099v3.7192zM31.4577 20.3002c0 .1713-.1389.3099-.3099.3099h-3.7192c-.1709 0-.3098-.1386-.3098-.3099V16.581c0-.1709.1389-.3099.3098-.3099h3.7192c.1713 0 .3099.139.3099.3099v3.7192zM36.8815 20.3002c0 .1713-.1389.3099-.3098.3099h-3.7192c-.1713 0-.3099-.1386-.3099-.3099V16.581c0-.1709.139-.3099.3099-.3099h3.7192c.1709 0 .3098.139.3098.3099v3.7192z" fill="#995140"/><path d="M42.3055 20.3002c0 .1713-.139.3099-.3099.3099h-3.7192c-.1713 0-.3098-.1386-.3098-.3099V16.581c0-.1709.1385-.3099.3098-.3099h3.7192c.1713 0 .3099.139.3099.3099v3.7192z" fill="#E6D1A2"/><path d="M47.7289 20.3002c0 .1713-.1389.3099-.3099.3099h-3.7191c-.1713 0-.3099-.1386-.3099-.3099V16.581c0-.1709.1386-.3099.3099-.3099h3.7191c.1713 0 .3099.139.3099.3099v3.7192zM53.1528 20.3002c0 .1713-.1386.3099-.3099.3099h-3.7192c-.1713 0-.3099-.1386-.3099-.3099V16.581c0-.1709.139-.3099.3099-.3099h3.7192c.1713 0 .3099.139.3099.3099v3.7192z" fill="#995140"/><path d="M58.5762 20.3002c0 .1713-.1389.3099-.3098.3099h-3.7192c-.171 0-.3099-.1386-.3099-.3099V16.581c0-.1709.1389-.3099.3099-.3099h3.7192c.1709 0 .3098.139.3098.3099v3.7192z" fill="#6F3226"/><path d="M64.0004 20.3002c0 .1713-.139.3099-.3099.3099h-3.7191c-.1713 0-.3099-.1386-.3099-.3099V16.581c0-.1709.1389-.3099.3099-.3099h3.7191c.1709 0 .3099.139.3099.3099v3.7192zM4.33892 25.724c0 .1713-.13895.3099-.30987.3099H.309869C.138946 26.0339 0 25.895 0 25.724v-3.7191c0-.1713.138946-.3099.309869-.3099H4.02905c.17131 0 .30987.1389.30987.3099v3.7191zM9.76274 25.724c0 .1713-.13894.3099-.30986.3099H5.7337c-.17093 0-.30987-.1389-.30987-.3099v-3.7191c0-.1713.13894-.3099.30987-.3099h3.71918c.17092 0 .30986.1389.30986.3099v3.7191z" fill="#995140"/><path d="M15.1866 25.724c0 .1713-.139.3099-.3099.3099h-3.7192c-.1713 0-.3098-.1389-.3098-.3099v-3.7191c0-.1713.1385-.3099.3098-.3099h3.7192c.1713 0 .3099.1389.3099.3099v3.7191z" fill="#803729"/><path d="M20.6104 25.724c0 .1713-.1389.3099-.3099.3099h-3.7191c-.1714 0-.3099-.1389-.3099-.3099v-3.7191c0-.1713.1389-.3099.3099-.3099h3.7191c.1713 0 .3099.1389.3099.3099v3.7191z" fill="#995140"/><path d="M26.0339 25.724c0 .1713-.1386.3099-.3099.3099h-3.7192c-.1713 0-.3099-.1389-.3099-.3099v-3.7191c0-.1713.139-.3099.3099-.3099h3.7192c.1713 0 .3099.1389.3099.3099v3.7191z" fill="#803729"/><path d="M31.4577 25.724c0 .1713-.1389.3099-.3099.3099h-3.7192c-.1709 0-.3098-.1389-.3098-.3099v-3.7191c0-.1713.1389-.3099.3098-.3099h3.7192c.1713 0 .3099.1389.3099.3099v3.7191zM36.8815 25.724c0 .1713-.1389.3099-.3098.3099h-3.7192c-.1713 0-.3099-.1389-.3099-.3099v-3.7191c0-.1713.139-.3099.3099-.3099h3.7192c.1709 0 .3098.1389.3098.3099v3.7191zM42.3055 25.724c0 .1713-.139.3099-.3099.3099h-3.7192c-.1713 0-.3098-.1389-.3098-.3099v-3.7191c0-.1713.1385-.3099.3098-.3099h3.7192c.1713 0 .3099.1389.3099.3099v3.7191z" fill="#995140"/><path d="M47.7289 25.724c0 .1713-.1389.3099-.3099.3099h-3.7191c-.1713 0-.3099-.1389-.3099-.3099v-3.7191c0-.1713.1386-.3099.3099-.3099h3.7191c.1713 0 .3099.1389.3099.3099v3.7191z" fill="#E6D1A2"/><path d="M53.1528 25.724c0 .1713-.1386.3099-.3099.3099h-3.7192c-.1713 0-.3099-.1389-.3099-.3099v-3.7191c0-.1713.139-.3099.3099-.3099h3.7192c.1713 0 .3099.1389.3099.3099v3.7191z" fill="#E5C89E"/><path d="M58.5762 25.724c0 .1713-.1389.3099-.3098.3099h-3.7192c-.171 0-.3099-.1389-.3099-.3099v-3.7191c0-.1713.1389-.3099.3099-.3099h3.7192c.1709 0 .3098.1389.3098.3099v3.7191zM64.0004 25.724c0 .1713-.139.3099-.3099.3099h-3.7191c-.1713 0-.3099-.1389-.3099-.3099v-3.7191c0-.1713.1389-.3099.3099-.3099h3.7191c.1709 0 .3099.1389.3099.3099v3.7191zM4.33892 31.1479c0 .1713-.13895.3098-.30987.3098H.309869C.138946 31.4577 0 31.3188 0 31.1479v-3.7192c0-.1713.138946-.3099.309869-.3099H4.02905c.17131 0 .30987.1386.30987.3099v3.7192z" fill="#995140"/><path d="M9.76274 31.1479c0 .1713-.13894.3098-.30986.3098H5.7337c-.17093 0-.30987-.1389-.30987-.3098v-3.7192c0-.1713.13894-.3099.30987-.3099h3.71918c.17092 0 .30986.1386.30986.3099v3.7192z" fill="#946A59"/><path d="M15.1866 31.1479c0 .1713-.139.3098-.3099.3098h-3.7192c-.1713 0-.3098-.1389-.3098-.3098v-3.7192c0-.1713.1385-.3099.3098-.3099h3.7192c.1713 0 .3099.1386.3099.3099v3.7192z" fill="#995140"/><path d="M20.6104 31.1479c0 .1713-.1389.3098-.3099.3098h-3.7191c-.1714 0-.3099-.1389-.3099-.3098v-3.7192c0-.1713.1389-.3099.3099-.3099h3.7191c.1713 0 .3099.1386.3099.3099v3.7192z" fill="#803729"/><path d="M26.0339 31.1479c0 .1713-.1386.3098-.3099.3098h-3.7192c-.1713 0-.3099-.1389-.3099-.3098v-3.7192c0-.1713.139-.3099.3099-.3099h3.7192c.1713 0 .3099.1386.3099.3099v3.7192z" fill="#995140"/><path d="M31.4577 31.1479c0 .1713-.1389.3098-.3099.3098h-3.7192c-.1709 0-.3098-.1389-.3098-.3098v-3.7192c0-.1713.1389-.3099.3098-.3099h3.7192c.1713 0 .3099.1386.3099.3099v3.7192z" fill="#803729"/><path d="M36.8815 31.1479c0 .1713-.1389.3098-.3098.3098h-3.7192c-.1713 0-.3099-.1389-.3099-.3098v-3.7192c0-.1713.139-.3099.3099-.3099h3.7192c.1709 0 .3098.1386.3098.3099v3.7192zM42.3055 31.1479c0 .1713-.139.3098-.3099.3098h-3.7192c-.1713 0-.3098-.1389-.3098-.3098v-3.7192c0-.1713.1385-.3099.3098-.3099h3.7192c.1713 0 .3099.1386.3099.3099v3.7192z" fill="#995140"/><path d="M47.7289 31.1479c0 .1713-.1389.3098-.3099.3098h-3.7191c-.1713 0-.3099-.1389-.3099-.3098v-3.7192c0-.1713.1386-.3099.3099-.3099h3.7191c.1713 0 .3099.1386.3099.3099v3.7192z" fill="#803729"/><path d="M53.1528 31.1479c0 .1713-.1386.3098-.3099.3098h-3.7192c-.1713 0-.3099-.1389-.3099-.3098v-3.7192c0-.1713.139-.3099.3099-.3099h3.7192c.1713 0 .3099.1386.3099.3099v3.7192z" fill="#995140"/><path d="M58.5762 31.1479c0 .1713-.1389.3098-.3098.3098h-3.7192c-.171 0-.3099-.1389-.3099-.3098v-3.7192c0-.1713.1389-.3099.3099-.3099h3.7192c.1709 0 .3098.1386.3098.3099v3.7192z" fill="#E6D1A2"/><path d="M64.0004 31.1479c0 .1713-.139.3098-.3099.3098h-3.7191c-.1713 0-.3099-.1389-.3099-.3098v-3.7192c0-.1713.1389-.3099.3099-.3099h3.7191c.1709 0 .3099.1386.3099.3099v3.7192z" fill="#803729"/><path d="M4.33892 36.5717c0 .1709-.13895.3099-.30987.3099H.309869C.138946 36.8816 0 36.7426 0 36.5717v-3.7192c0-.1713.138946-.3098.309869-.3098H4.02905c.17131 0 .30987.1385.30987.3098v3.7192z" fill="#995140"/><path d="M9.76274 36.5717c0 .1709-.13894.3099-.30986.3099H5.7337c-.17093 0-.30987-.139-.30987-.3099v-3.7192c0-.1713.13894-.3098.30987-.3098h3.71918c.17092 0 .30986.1385.30986.3098v3.7192z" fill="#803729"/><path d="M15.1866 36.5717c0 .1709-.139.3099-.3099.3099h-3.7192c-.1713 0-.3098-.139-.3098-.3099v-3.7192c0-.1713.1385-.3098.3098-.3098h3.7192c.1713 0 .3099.1385.3099.3098v3.7192z" fill="#995140"/><path d="M20.6104 36.5717c0 .1709-.1389.3099-.3099.3099h-3.7191c-.1714 0-.3099-.139-.3099-.3099v-3.7192c0-.1713.1389-.3098.3099-.3098h3.7191c.1713 0 .3099.1385.3099.3098v3.7192z" fill="#946A59"/><path d="M26.0339 36.5717c0 .1709-.1386.3099-.3099.3099h-3.7192c-.1713 0-.3099-.139-.3099-.3099v-3.7192c0-.1713.139-.3098.3099-.3098h3.7192c.1713 0 .3099.1385.3099.3098v3.7192zM31.4577 36.5717c0 .1709-.1389.3099-.3099.3099h-3.7192c-.1709 0-.3098-.139-.3098-.3099v-3.7192c0-.1713.1389-.3098.3098-.3098h3.7192c.1713 0 .3099.1385.3099.3098v3.7192z" fill="#995140"/><path d="M36.8815 36.5717c0 .1709-.1389.3099-.3098.3099h-3.7192c-.1713 0-.3099-.139-.3099-.3099v-3.7192c0-.1713.139-.3098.3099-.3098h3.7192c.1709 0 .3098.1385.3098.3098v3.7192z" fill="#946A59"/><path d="M42.3055 36.5717c0 .1709-.139.3099-.3099.3099h-3.7192c-.1713 0-.3098-.139-.3098-.3099v-3.7192c0-.1713.1385-.3098.3098-.3098h3.7192c.1713 0 .3099.1385.3099.3098v3.7192z" fill="#E6D1A2"/><path d="M47.7289 36.5717c0 .1709-.1389.3099-.3099.3099h-3.7191c-.1713 0-.3099-.139-.3099-.3099v-3.7192c0-.1713.1386-.3098.3099-.3098h3.7191c.1713 0 .3099.1385.3099.3098v3.7192z" fill="#6F3226"/><path d="M53.1528 36.5717c0 .1709-.1386.3099-.3099.3099h-3.7192c-.1713 0-.3099-.139-.3099-.3099v-3.7192c0-.1713.139-.3098.3099-.3098h3.7192c.1713 0 .3099.1385.3099.3098v3.7192z" fill="#995140"/><path d="M58.5762 36.5717c0 .1709-.1389.3099-.3098.3099h-3.7192c-.171 0-.3099-.139-.3099-.3099v-3.7192c0-.1713.1389-.3098.3099-.3098h3.7192c.1709 0 .3098.1385.3098.3098v3.7192z" fill="#D8C599"/><path d="M64.0004 36.5717c0 .1709-.139.3099-.3099.3099h-3.7191c-.1713 0-.3099-.139-.3099-.3099v-3.7192c0-.1713.1389-.3098.3099-.3098h3.7191c.1709 0 .3099.1385.3099.3098v3.7192z" fill="#6F3226"/><path d="M4.33892 41.9952c0 .1713-.13895.3099-.30987.3099H.309869C.138946 42.3051 0 42.1665 0 41.9952V38.276c0-.1713.138946-.3099.309869-.3099H4.02905c.17131 0 .30987.1386.30987.3099v3.7192zM9.76274 41.9952c0 .1713-.13894.3099-.30986.3099H5.7337c-.17093 0-.30987-.1386-.30987-.3099V38.276c0-.1713.13894-.3099.30987-.3099h3.71918c.17092 0 .30986.1386.30986.3099v3.7192z" fill="#995140"/><path d="M15.1866 41.9952c0 .1713-.139.3099-.3099.3099h-3.7192c-.1713 0-.3098-.1386-.3098-.3099V38.276c0-.1713.1385-.3099.3098-.3099h3.7192c.1713 0 .3099.1386.3099.3099v3.7192zM20.6104 41.9952c0 .1713-.1389.3099-.3099.3099h-3.7191c-.1714 0-.3099-.1386-.3099-.3099V38.276c0-.1713.1389-.3099.3099-.3099h3.7191c.1713 0 .3099.1386.3099.3099v3.7192z" fill="#803729"/><path d="M26.0339 41.9952c0 .1713-.1386.3099-.3099.3099h-3.7192c-.1713 0-.3099-.1386-.3099-.3099V38.276c0-.1713.139-.3099.3099-.3099h3.7192c.1713 0 .3099.1386.3099.3099v3.7192z" fill="#995140"/><path d="M31.4577 41.9952c0 .1713-.1389.3099-.3099.3099h-3.7192c-.1709 0-.3098-.1386-.3098-.3099V38.276c0-.1713.1389-.3099.3098-.3099h3.7192c.1713 0 .3099.1386.3099.3099v3.7192z" fill="#803729"/><path d="M36.8815 41.9952c0 .1713-.1389.3099-.3098.3099h-3.7192c-.1713 0-.3099-.1386-.3099-.3099V38.276c0-.1713.139-.3099.3099-.3099h3.7192c.1709 0 .3098.1386.3098.3099v3.7192zM42.3055 41.9952c0 .1713-.139.3099-.3099.3099h-3.7192c-.1713 0-.3098-.1386-.3098-.3099V38.276c0-.1713.1385-.3099.3098-.3099h3.7192c.1713 0 .3099.1386.3099.3099v3.7192z" fill="#995140"/><path d="M47.7289 41.9952c0 .1713-.1389.3099-.3099.3099h-3.7191c-.1713 0-.3099-.1386-.3099-.3099V38.276c0-.1713.1386-.3099.3099-.3099h3.7191c.1713 0 .3099.1386.3099.3099v3.7192z" fill="#D8C599"/><path d="M53.1528 41.9952c0 .1713-.1386.3099-.3099.3099h-3.7192c-.1713 0-.3099-.1386-.3099-.3099V38.276c0-.1713.139-.3099.3099-.3099h3.7192c.1713 0 .3099.1386.3099.3099v3.7192z" fill="#E6D1A2"/><path d="M58.5762 41.9952c0 .1713-.1389.3099-.3098.3099h-3.7192c-.171 0-.3099-.1386-.3099-.3099V38.276c0-.1713.1389-.3099.3099-.3099h3.7192c.1709 0 .3098.1386.3098.3099v3.7192z" fill="#803729"/><path d="M64.0004 41.9952c0 .1713-.139.3099-.3099.3099h-3.7191c-.1713 0-.3099-.1386-.3099-.3099V38.276c0-.1713.1389-.3099.3099-.3099h3.7191c.1709 0 .3099.1386.3099.3099v3.7192z" fill="#946A59"/><path d="M4.33892 47.419c0 .1713-.13895.3095-.30987.3095H.309869C.138946 47.7285 0 47.5903 0 47.419v-3.7191c0-.1714.138946-.3099.309869-.3099H4.02905c.17131 0 .30987.1385.30987.3099v3.7191z" fill="#995140"/><path d="M9.76274 47.419c0 .1713-.13894.3095-.30986.3095H5.7337c-.17093 0-.30987-.1382-.30987-.3095v-3.7191c0-.1714.13894-.3099.30987-.3099h3.71918c.17092 0 .30986.1385.30986.3099v3.7191zM15.1866 47.419c0 .1713-.139.3095-.3099.3095h-3.7192c-.1713 0-.3098-.1382-.3098-.3095v-3.7191c0-.1714.1385-.3099.3098-.3099h3.7192c.1713 0 .3099.1385.3099.3099v3.7191z" fill="#803729"/><path d="M20.6104 47.419c0 .1713-.1389.3095-.3099.3095h-3.7191c-.1714 0-.3099-.1382-.3099-.3095v-3.7191c0-.1714.1389-.3099.3099-.3099h3.7191c.1713 0 .3099.1385.3099.3099v3.7191z" fill="#995140"/><path d="M26.0339 47.419c0 .1713-.1386.3095-.3099.3095h-3.7192c-.1713 0-.3099-.1382-.3099-.3095v-3.7191c0-.1714.139-.3099.3099-.3099h3.7192c.1713 0 .3099.1385.3099.3099v3.7191zM31.4577 47.419c0 .1713-.1389.3095-.3099.3095h-3.7192c-.1709 0-.3098-.1382-.3098-.3095v-3.7191c0-.1714.1389-.3099.3098-.3099h3.7192c.1713 0 .3099.1385.3099.3099v3.7191z" fill="#803729"/><path d="M36.8815 47.419c0 .1713-.1389.3095-.3098.3095h-3.7192c-.1713 0-.3099-.1382-.3099-.3095v-3.7191c0-.1714.139-.3099.3099-.3099h3.7192c.1709 0 .3098.1385.3098.3099v3.7191z" fill="#946A59"/><path d="M42.3055 47.419c0 .1713-.139.3095-.3099.3095h-3.7192c-.1713 0-.3098-.1382-.3098-.3095v-3.7191c0-.1714.1385-.3099.3098-.3099h3.7192c.1713 0 .3099.1385.3099.3099v3.7191z" fill="#995140"/><path d="M47.7289 47.419c0 .1713-.1389.3095-.3099.3095h-3.7191c-.1713 0-.3099-.1382-.3099-.3095v-3.7191c0-.1714.1386-.3099.3099-.3099h3.7191c.1713 0 .3099.1385.3099.3099v3.7191z" fill="#6F3226"/><path d="M53.1528 47.419c0 .1713-.1386.3095-.3099.3095h-3.7192c-.1713 0-.3099-.1382-.3099-.3095v-3.7191c0-.1714.139-.3099.3099-.3099h3.7192c.1713 0 .3099.1385.3099.3099v3.7191z" fill="#803729"/><path d="M58.5762 47.419c0 .1713-.1389.3095-.3098.3095h-3.7192c-.171 0-.3099-.1382-.3099-.3095v-3.7191c0-.1714.1389-.3099.3099-.3099h3.7192c.1709 0 .3098.1385.3098.3099v3.7191zM64.0004 47.419c0 .1713-.139.3095-.3099.3095h-3.7191c-.1713 0-.3099-.1382-.3099-.3095v-3.7191c0-.1714.1389-.3099.3099-.3099h3.7191c.1709 0 .3099.1385.3099.3099v3.7191zM4.33892 52.8429c0 .1709-.13895.3094-.30987.3094H.309869C.138946 53.1523 0 53.0138 0 52.8429v-3.7196c0-.1709.138946-.3099.309869-.3099H4.02905c.17131 0 .30987.139.30987.3099v3.7196zM9.76274 52.8429c0 .1709-.13894.3094-.30986.3094H5.7337c-.17093 0-.30987-.1385-.30987-.3094v-3.7196c0-.1709.13894-.3099.30987-.3099h3.71918c.17092 0 .30986.139.30986.3099v3.7196z" fill="#995140"/><path d="M15.1866 52.8429c0 .1709-.139.3094-.3099.3094h-3.7192c-.1713 0-.3098-.1385-.3098-.3094v-3.7196c0-.1709.1385-.3099.3098-.3099h3.7192c.1713 0 .3099.139.3099.3099v3.7196z" fill="#946A59"/><path d="M20.6104 52.8429c0 .1709-.1389.3094-.3099.3094h-3.7191c-.1714 0-.3099-.1385-.3099-.3094v-3.7196c0-.1709.1389-.3099.3099-.3099h3.7191c.1713 0 .3099.139.3099.3099v3.7196zM26.0339 52.8429c0 .1709-.1386.3094-.3099.3094h-3.7192c-.1713 0-.3099-.1385-.3099-.3094v-3.7196c0-.1709.139-.3099.3099-.3099h3.7192c.1713 0 .3099.139.3099.3099v3.7196zM31.4577 52.8429c0 .1709-.1389.3094-.3099.3094h-3.7192c-.1709 0-.3098-.1385-.3098-.3094v-3.7196c0-.1709.1389-.3099.3098-.3099h3.7192c.1713 0 .3099.139.3099.3099v3.7196zM36.8815 52.8429c0 .1709-.1389.3094-.3098.3094h-3.7192c-.1713 0-.3099-.1385-.3099-.3094v-3.7196c0-.1709.139-.3099.3099-.3099h3.7192c.1709 0 .3098.139.3098.3099v3.7196z" fill="#995140"/><path d="M42.3055 52.8429c0 .1709-.139.3094-.3099.3094h-3.7192c-.1713 0-.3098-.1385-.3098-.3094v-3.7196c0-.1709.1385-.3099.3098-.3099h3.7192c.1713 0 .3099.139.3099.3099v3.7196z" fill="#803729"/><path d="M47.7289 52.8429c0 .1709-.1389.3094-.3099.3094h-3.7191c-.1713 0-.3099-.1385-.3099-.3094v-3.7196c0-.1709.1386-.3099.3099-.3099h3.7191c.1713 0 .3099.139.3099.3099v3.7196z" fill="#995140"/><path d="M53.1528 52.8429c0 .1709-.1386.3094-.3099.3094h-3.7192c-.1713 0-.3099-.1385-.3099-.3094v-3.7196c0-.1709.139-.3099.3099-.3099h3.7192c.1713 0 .3099.139.3099.3099v3.7196z" fill="#803729"/><path d="M58.5762 52.8429c0 .1709-.1389.3094-.3098.3094h-3.7192c-.171 0-.3099-.1385-.3099-.3094v-3.7196c0-.1709.1389-.3099.3099-.3099h3.7192c.1709 0 .3098.139.3098.3099v3.7196z" fill="#946A59"/><path d="M64.0004 52.8429c0 .1709-.139.3094-.3099.3094h-3.7191c-.1713 0-.3099-.1385-.3099-.3094v-3.7196c0-.1709.1389-.3099.3099-.3099h3.7191c.1709 0 .3099.139.3099.3099v3.7196zM4.33892 58.2663c0 .1717-.13895.3099-.30987.3099H.309869C.138946 58.5762 0 58.438 0 58.2663v-3.7191c0-.171.138946-.3095.309869-.3095H4.02905c.17131 0 .30987.1385.30987.3095v3.7191z" fill="#995140"/><path d="M9.76274 58.2663c0 .1717-.13894.3099-.30986.3099H5.7337c-.17093 0-.30987-.1382-.30987-.3099v-3.7191c0-.171.13894-.3095.30987-.3095h3.71918c.17092 0 .30986.1385.30986.3095v3.7191z" fill="#946A59"/><path d="M15.1866 58.2663c0 .1717-.139.3099-.3099.3099h-3.7192c-.1713 0-.3098-.1382-.3098-.3099v-3.7191c0-.171.1385-.3095.3098-.3095h3.7192c.1713 0 .3099.1385.3099.3095v3.7191z" fill="#6F3226"/><path d="M20.6104 58.2663c0 .1717-.1389.3099-.3099.3099h-3.7191c-.1714 0-.3099-.1382-.3099-.3099v-3.7191c0-.171.1389-.3095.3099-.3095h3.7191c.1713 0 .3099.1385.3099.3095v3.7191z" fill="#995140"/><path d="M26.0339 58.2663c0 .1717-.1386.3099-.3099.3099h-3.7192c-.1713 0-.3099-.1382-.3099-.3099v-3.7191c0-.171.139-.3095.3099-.3095h3.7192c.1713 0 .3099.1385.3099.3095v3.7191z" fill="#946A59"/><path d="M31.4577 58.2663c0 .1717-.1389.3099-.3099.3099h-3.7192c-.1709 0-.3098-.1382-.3098-.3099v-3.7191c0-.171.1389-.3095.3098-.3095h3.7192c.1713 0 .3099.1385.3099.3095v3.7191z" fill="#995140"/><path d="M36.8815 58.2663c0 .1717-.1389.3099-.3098.3099h-3.7192c-.1713 0-.3099-.1382-.3099-.3099v-3.7191c0-.171.139-.3095.3099-.3095h3.7192c.1709 0 .3098.1385.3098.3095v3.7191z" fill="#946A59"/><path d="M42.3055 58.2663c0 .1717-.139.3099-.3099.3099h-3.7192c-.1713 0-.3098-.1382-.3098-.3099v-3.7191c0-.171.1385-.3095.3098-.3095h3.7192c.1713 0 .3099.1385.3099.3095v3.7191zM47.7289 58.2663c0 .1717-.1389.3099-.3099.3099h-3.7191c-.1713 0-.3099-.1382-.3099-.3099v-3.7191c0-.171.1386-.3095.3099-.3095h3.7191c.1713 0 .3099.1385.3099.3095v3.7191z" fill="#995140"/><path d="M53.1528 58.2663c0 .1717-.1386.3099-.3099.3099h-3.7192c-.1713 0-.3099-.1382-.3099-.3099v-3.7191c0-.171.139-.3095.3099-.3095h3.7192c.1713 0 .3099.1385.3099.3095v3.7191z" fill="#803729"/><path d="M58.5762 58.2663c0 .1717-.1389.3099-.3098.3099h-3.7192c-.171 0-.3099-.1382-.3099-.3099v-3.7191c0-.171.1389-.3095.3099-.3095h3.7192c.1709 0 .3098.1385.3098.3095v3.7191zM64.0004 58.2663c0 .1717-.139.3099-.3099.3099h-3.7191c-.1713 0-.3099-.1382-.3099-.3099v-3.7191c0-.171.1389-.3095.3099-.3095h3.7191c.1709 0 .3099.1385.3099.3095v3.7191zM4.33892 63.6901c0 .1709-.13895.3099-.30987.3099H.309869C.138946 64 0 63.861 0 63.6901v-3.7192c0-.1713.138946-.3099.309869-.3099H4.02905c.17131 0 .30987.1386.30987.3099v3.7192z" fill="#995140"/><path d="M9.76274 63.6901c0 .1709-.13894.3099-.30986.3099H5.7337c-.17093 0-.30987-.139-.30987-.3099v-3.7192c0-.1713.13894-.3099.30987-.3099h3.71918c.17092 0 .30986.1386.30986.3099v3.7192z" fill="#6F3226"/><path d="M15.1866 63.6901c0 .1709-.139.3099-.3099.3099h-3.7192c-.1713 0-.3098-.139-.3098-.3099v-3.7192c0-.1713.1385-.3099.3098-.3099h3.7192c.1713 0 .3099.1386.3099.3099v3.7192z" fill="#995140"/><path d="M20.6104 63.6901c0 .1709-.1389.3099-.3099.3099h-3.7191c-.1714 0-.3099-.139-.3099-.3099v-3.7192c0-.1713.1389-.3099.3099-.3099h3.7191c.1713 0 .3099.1386.3099.3099v3.7192z" fill="#946A59"/><path d="M26.0339 63.6901c0 .1709-.1386.3099-.3099.3099h-3.7192c-.1713 0-.3099-.139-.3099-.3099v-3.7192c0-.1713.139-.3099.3099-.3099h3.7192c.1713 0 .3099.1386.3099.3099v3.7192z" fill="#995140"/><path d="M31.4577 63.6901c0 .1709-.1389.3099-.3099.3099h-3.7192c-.1709 0-.3098-.139-.3098-.3099v-3.7192c0-.1713.1389-.3099.3098-.3099h3.7192c.1713 0 .3099.1386.3099.3099v3.7192z" fill="#6F3226"/><path d="M36.8815 63.6901c0 .1709-.1389.3099-.3098.3099h-3.7192c-.1713 0-.3099-.139-.3099-.3099v-3.7192c0-.1713.139-.3099.3099-.3099h3.7192c.1709 0 .3098.1386.3098.3099v3.7192z" fill="#995140"/><path d="M42.3055 63.6901c0 .1709-.139.3099-.3099.3099h-3.7192c-.1713 0-.3098-.139-.3098-.3099v-3.7192c0-.1713.1385-.3099.3098-.3099h3.7192c.1713 0 .3099.1386.3099.3099v3.7192z" fill="#6F3226"/><path d="M47.7289 63.6901c0 .1709-.1389.3099-.3099.3099h-3.7191c-.1713 0-.3099-.139-.3099-.3099v-3.7192c0-.1713.1386-.3099.3099-.3099h3.7191c.1713 0 .3099.1386.3099.3099v3.7192zM53.1528 63.6901c0 .1709-.1386.3099-.3099.3099h-3.7192c-.1713 0-.3099-.139-.3099-.3099v-3.7192c0-.1713.139-.3099.3099-.3099h3.7192c.1713 0 .3099.1386.3099.3099v3.7192zM58.5762 63.6901c0 .1709-.1389.3099-.3098.3099h-3.7192c-.171 0-.3099-.139-.3099-.3099v-3.7192c0-.1713.1389-.3099.3099-.3099h3.7192c.1709 0 .3098.1386.3098.3099v3.7192z" fill="#995140"/><path d="M64.0004 63.6901c0 .1709-.139.3099-.3099.3099h-3.7191c-.1713 0-.3099-.139-.3099-.3099v-3.7192c0-.1713.1389-.3099.3099-.3099h3.7191c.1709 0 .3099.1386.3099.3099v3.7192z" fill="#6F3226"/></svg>