<svg xmlns="http://www.w3.org/2000/svg" fill="none" viewBox="0 0 782 569">
  <path fill-opacity=".01" fill="#E5C89E" d="M9.456 35.792a2.753 2.753 0 01-2.753 2.753h-33.04a2.75 2.75 0 01-2.752-2.753V2.752A2.753 2.753 0 01-26.337 0h33.04a2.753 2.753 0 012.753 2.753v33.04zM250.366 35.792a2.753 2.753 0 01-2.753 2.753h-33.039a2.75 2.75 0 01-2.752-2.753V2.752A2.753 2.753 0 01214.574 0h33.039a2.753 2.753 0 012.753 2.753v33.04z"/>
  <path fill-opacity=".036" fill="#946a59" d="M105.818 83.975a2.753 2.753 0 01-2.753 2.753h-33.04a2.75 2.75 0 01-2.752-2.753v-33.04a2.75 2.75 0 012.753-2.752h33.039a2.75 2.75 0 012.753 2.753v33.039zM154.001 83.975a2.75 2.75 0 01-2.753 2.753h-33.04a2.75 2.75 0 01-2.752-2.753v-33.04a2.753 2.753 0 012.752-2.752h33.04a2.75 2.75 0 012.753 2.753v33.039zM57.638 132.158a2.753 2.753 0 01-2.752 2.753h-33.04a2.75 2.75 0 01-2.753-2.753V99.115a2.75 2.75 0 012.753-2.75h33.04a2.75 2.75 0 012.752 2.75v33.043z"/>
  <path fill-opacity=".17" fill="#946A59" d="M202.18 132.158a2.753 2.753 0 01-2.753 2.753h-33.039a2.753 2.753 0 01-2.753-2.753V99.115a2.752 2.752 0 012.753-2.75h33.039a2.752 2.752 0 012.753 2.75v33.043z"/>
  <path fill-opacity=".06" fill="#803729" d="M250.366 132.158a2.753 2.753 0 01-2.753 2.753h-33.039a2.75 2.75 0 01-2.752-2.753V99.115a2.752 2.752 0 012.752-2.75h33.039a2.752 2.752 0 012.753 2.75v33.043z"/>
  <path fill-opacity=".17" fill="#946A59" d="M57.638 180.337a2.753 2.753 0 01-2.752 2.753h-33.04a2.75 2.75 0 01-2.753-2.753v-33.039a2.753 2.753 0 012.753-2.753h33.04a2.753 2.753 0 012.752 2.753v33.039zM105.818 228.52a2.754 2.754 0 01-2.753 2.753h-33.04a2.753 2.753 0 01-2.752-2.753v-33.039a2.75 2.75 0 012.753-2.753h33.039a2.753 2.753 0 012.753 2.753v33.039z"/>
  <path fill-opacity=".036" fill="#946a59" d="M154.001 228.52a2.751 2.751 0 01-2.753 2.753h-33.04a2.753 2.753 0 01-2.752-2.753v-33.039a2.753 2.753 0 012.752-2.753h33.04a2.753 2.753 0 012.753 2.753v33.039z"/>
  <path fill-opacity=".06" fill="#803729" d="M105.818 276.703a2.754 2.754 0 01-2.753 2.753h-33.04a2.753 2.753 0 01-2.752-2.753v-33.039a2.75 2.75 0 012.753-2.753h33.039a2.751 2.751 0 012.753 2.753v33.039z"/>
  <path fill-opacity=".17" fill="#946A59" d="M202.18 276.703a2.753 2.753 0 01-2.753 2.753h-33.039a2.755 2.755 0 01-2.753-2.753v-33.039a2.753 2.753 0 012.753-2.753h33.039a2.753 2.753 0 012.753 2.753v33.039z"/>
  <path fill-opacity=".06" fill="#803729" d="M250.366 276.703a2.753 2.753 0 01-2.753 2.753h-33.039a2.753 2.753 0 01-2.752-2.753v-33.039a2.753 2.753 0 012.752-2.753h33.039a2.753 2.753 0 012.753 2.753v33.039z"/>
  <path fill-opacity=".01" fill="#E5C89E" d="M9.456 324.886a2.756 2.756 0 01-2.753 2.753h-33.04a2.754 2.754 0 01-2.752-2.753v-33.04a2.753 2.753 0 012.752-2.752h33.04a2.753 2.753 0 012.753 2.752v33.04z"/>
  <path fill-opacity=".036" fill="#946a59" d="M57.638 324.886a2.756 2.756 0 01-2.752 2.753h-33.04a2.753 2.753 0 01-2.753-2.753v-33.04a2.75 2.75 0 012.753-2.752h33.04a2.75 2.75 0 012.752 2.752v33.04z"/>
  <path fill-opacity=".17" fill="#946A59" d="M202.18 324.886a2.755 2.755 0 01-2.753 2.753h-33.039a2.755 2.755 0 01-2.753-2.753v-33.04a2.753 2.753 0 012.753-2.752h33.039a2.753 2.753 0 012.753 2.752v33.04zM105.818 373.065a2.754 2.754 0 01-2.753 2.753h-33.04a2.75 2.75 0 01-2.752-2.753v-33.039a2.75 2.75 0 012.753-2.753h33.039a2.751 2.751 0 012.753 2.753v33.039z"/>
  <path fill-opacity=".036" fill="#946a59" d="M154.001 373.065a2.751 2.751 0 01-2.753 2.753h-33.04a2.75 2.75 0 01-2.752-2.753v-33.039a2.753 2.753 0 012.752-2.753h33.04a2.751 2.751 0 012.753 2.753v33.039z"/>
  <path fill-opacity=".01" fill="#E5C89E" d="M250.366 373.065a2.753 2.753 0 01-2.753 2.753h-33.039a2.75 2.75 0 01-2.752-2.753v-33.039a2.753 2.753 0 012.752-2.753h33.039a2.753 2.753 0 012.753 2.753v33.039zM9.456 421.248a2.75 2.75 0 01-2.753 2.75h-33.04a2.748 2.748 0 01-2.752-2.75v-33.039a2.753 2.753 0 012.752-2.753h33.04a2.753 2.753 0 012.753 2.753v33.039z"/>
  <path fill-opacity=".06" fill="#803729" d="M57.638 469.431a2.752 2.752 0 01-2.752 2.749h-33.04a2.75 2.75 0 01-2.753-2.749v-33.043a2.753 2.753 0 012.753-2.753h33.04a2.753 2.753 0 012.752 2.753v33.043z"/>
  <path fill-opacity=".01" fill="#E5C89E" d="M202.18 469.431a2.752 2.752 0 01-2.753 2.749h-33.039a2.752 2.752 0 01-2.753-2.749v-33.043a2.755 2.755 0 012.753-2.753h33.039a2.755 2.755 0 012.753 2.753v33.043zM9.456 517.61a2.75 2.75 0 01-2.753 2.753h-33.04a2.748 2.748 0 01-2.752-2.753v-33.039a2.752 2.752 0 012.752-2.749h33.04a2.752 2.752 0 012.753 2.749v33.039z"/>
  <path fill-opacity=".06" fill="#803729" d="M154.001 517.61a2.748 2.748 0 01-2.753 2.753h-33.04a2.748 2.748 0 01-2.752-2.753v-33.039a2.752 2.752 0 012.752-2.749h33.04a2.75 2.75 0 012.753 2.749v33.039zM300.179 35.792a2.753 2.753 0 01-2.753 2.753h-33.039a2.753 2.753 0 01-2.753-2.753V2.752A2.753 2.753 0 01264.387 0h33.039a2.753 2.753 0 012.753 2.753v33.04zM444.724 35.792a2.75 2.75 0 01-2.753 2.753h-33.04a2.75 2.75 0 01-2.752-2.753V2.752A2.753 2.753 0 01408.931 0h33.04a2.75 2.75 0 012.753 2.753v33.04zM492.907 35.792a2.753 2.753 0 01-2.753 2.753h-33.04a2.753 2.753 0 01-2.752-2.753V2.752A2.753 2.753 0 01457.114 0h33.04a2.75 2.75 0 012.753 2.753v33.04z"/>
  <path fill-opacity=".01" fill="#E5C89E" d="M541.089 35.792a2.753 2.753 0 01-2.752 2.753h-33.04a2.75 2.75 0 01-2.753-2.753V2.752A2.753 2.753 0 01505.297 0h33.04a2.753 2.753 0 012.752 2.753v33.04zM782 35.792a2.753 2.753 0 01-2.753 2.753h-33.039a2.75 2.75 0 01-2.753-2.753V2.752A2.753 2.753 0 01746.208 0h33.039A2.753 2.753 0 01782 2.753v33.04zM348.361 83.975a2.753 2.753 0 01-2.752 2.753h-33.04a2.75 2.75 0 01-2.752-2.753v-33.04a2.75 2.75 0 012.752-2.752h33.04a2.75 2.75 0 012.752 2.753v33.039zM396.544 83.975a2.753 2.753 0 01-2.752 2.753h-33.04a2.75 2.75 0 01-2.753-2.753v-33.04a2.753 2.753 0 012.753-2.752h33.04a2.75 2.75 0 012.752 2.753v33.039z"/>
  <path fill-opacity=".06" fill="#803729" d="M492.907 83.975a2.753 2.753 0 01-2.753 2.753h-33.04a2.753 2.753 0 01-2.752-2.753v-33.04a2.753 2.753 0 012.752-2.752h33.04a2.75 2.75 0 012.753 2.753v33.039z"/>
  <path fill-opacity=".17" fill="#946A59" d="M637.452 83.975a2.753 2.753 0 01-2.753 2.753H601.66a2.75 2.75 0 01-2.753-2.753v-33.04a2.75 2.75 0 012.753-2.752h33.039a2.75 2.75 0 012.753 2.753v33.039z"/>
  <path fill-opacity=".06" fill="#946a59" d="M685.634 83.975a2.75 2.75 0 01-2.752 2.753h-33.04a2.75 2.75 0 01-2.752-2.753v-33.04a2.753 2.753 0 012.752-2.752h33.04a2.75 2.75 0 012.752 2.753v33.039z"/>
  <path fill-opacity=".06" fill="#803729" d="M300.179 132.158a2.754 2.754 0 01-2.753 2.753h-33.039a2.753 2.753 0 01-2.753-2.753V99.115a2.752 2.752 0 012.753-2.75h33.039a2.753 2.753 0 012.753 2.75v33.043z"/>
  <path fill-opacity=".01" fill="#E5C89E" d="M444.724 132.158a2.751 2.751 0 01-2.753 2.753h-33.04a2.75 2.75 0 01-2.752-2.753V99.115a2.752 2.752 0 012.752-2.75h33.04a2.75 2.75 0 012.753 2.75v33.043z"/>
  <path fill-opacity=".06" fill="#946a59" d="M589.272 132.158a2.753 2.753 0 01-2.752 2.753h-33.04a2.75 2.75 0 01-2.752-2.753V99.115a2.75 2.75 0 012.752-2.75h33.04a2.75 2.75 0 012.752 2.75v33.043z"/>
  <path fill-opacity=".17" fill="#946A59" d="M733.814 132.158a2.753 2.753 0 01-2.753 2.753h-33.039a2.753 2.753 0 01-2.753-2.753V99.115a2.752 2.752 0 012.753-2.75h33.039a2.752 2.752 0 012.753 2.75v33.043z"/>
  <path fill-opacity=".06" fill="#803729" d="M782 132.158a2.753 2.753 0 01-2.753 2.753h-33.039a2.751 2.751 0 01-2.753-2.753V99.115a2.753 2.753 0 012.753-2.75h33.039a2.752 2.752 0 012.753 2.75v33.043zM300.179 180.337a2.754 2.754 0 01-2.753 2.753h-33.039a2.753 2.753 0 01-2.753-2.753v-33.039a2.755 2.755 0 012.753-2.753h33.039a2.755 2.755 0 012.753 2.753v33.039z"/>
  <path fill-opacity=".01" fill="#E5C89E" d="M396.544 180.337a2.753 2.753 0 01-2.752 2.753h-33.04a2.751 2.751 0 01-2.753-2.753v-33.039a2.755 2.755 0 012.753-2.753h33.04a2.753 2.753 0 012.752 2.753v33.039z"/>
  <path fill-opacity=".17" fill="#946A59" d="M589.272 180.337a2.753 2.753 0 01-2.752 2.753h-33.04a2.75 2.75 0 01-2.752-2.753v-33.039a2.752 2.752 0 012.752-2.753h33.04a2.753 2.753 0 012.752 2.753v33.039z"/>
  <path fill-opacity=".06" fill="#803729" d="M348.361 228.52a2.753 2.753 0 01-2.752 2.753h-33.04a2.752 2.752 0 01-2.752-2.753v-33.039a2.75 2.75 0 012.752-2.753h33.04a2.753 2.753 0 012.752 2.753v33.039zM444.724 228.52a2.751 2.751 0 01-2.753 2.753h-33.04a2.753 2.753 0 01-2.752-2.753v-33.039a2.753 2.753 0 012.752-2.753h33.04a2.753 2.753 0 012.753 2.753v33.039z"/>
  <path fill-opacity=".17" fill="#946A59" d="M685.634 228.52a2.75 2.75 0 01-2.752 2.753h-33.04a2.753 2.753 0 01-2.752-2.753v-33.039a2.753 2.753 0 012.752-2.753h33.04a2.753 2.753 0 012.752 2.753v33.039z"/>
  <path fill-opacity=".01" fill="#E5C89E" d="M300.179 276.703a2.754 2.754 0 01-2.753 2.753h-33.039a2.755 2.755 0 01-2.753-2.753v-33.039a2.753 2.753 0 012.753-2.753h33.039a2.754 2.754 0 012.753 2.753v33.039z"/>
  <path fill-opacity=".06" fill="#803729" d="M396.544 276.703a2.753 2.753 0 01-2.752 2.753h-33.04a2.754 2.754 0 01-2.753-2.753v-33.039a2.754 2.754 0 012.753-2.753h33.04a2.75 2.75 0 012.752 2.753v33.039zM492.907 276.703a2.754 2.754 0 01-2.753 2.753h-33.04a2.755 2.755 0 01-2.752-2.753v-33.039a2.753 2.753 0 012.752-2.753h33.04a2.751 2.751 0 012.753 2.753v33.039zM637.452 276.703a2.754 2.754 0 01-2.753 2.753H601.66a2.754 2.754 0 01-2.753-2.753v-33.039a2.751 2.751 0 012.753-2.753h33.039a2.751 2.751 0 012.753 2.753v33.039zM782 276.703a2.753 2.753 0 01-2.753 2.753h-33.039a2.754 2.754 0 01-2.753-2.753v-33.039a2.754 2.754 0 012.753-2.753h33.039a2.753 2.753 0 012.753 2.753v33.039zM300.179 324.886a2.756 2.756 0 01-2.753 2.753h-33.039a2.755 2.755 0 01-2.753-2.753v-33.04a2.753 2.753 0 012.753-2.752h33.039a2.753 2.753 0 012.753 2.752v33.04z"/>
  <path fill-opacity=".01" fill="#E5C89E" d="M396.544 324.886a2.755 2.755 0 01-2.752 2.753h-33.04a2.754 2.754 0 01-2.753-2.753v-33.04a2.753 2.753 0 012.753-2.752h33.04a2.75 2.75 0 012.752 2.752v33.04zM541.089 324.886a2.755 2.755 0 01-2.752 2.753h-33.04a2.754 2.754 0 01-2.753-2.753v-33.04a2.753 2.753 0 012.753-2.752h33.04a2.752 2.752 0 012.752 2.752v33.04z"/>
  <path fill-opacity=".17" fill="#946A59" d="M589.272 324.886a2.755 2.755 0 01-2.752 2.753h-33.04a2.753 2.753 0 01-2.752-2.753v-33.04a2.75 2.75 0 012.752-2.752h33.04a2.75 2.75 0 012.752 2.752v33.04zM733.814 324.886a2.755 2.755 0 01-2.753 2.753h-33.039a2.755 2.755 0 01-2.753-2.753v-33.04a2.753 2.753 0 012.753-2.752h33.039a2.753 2.753 0 012.753 2.752v33.04z"/>
  <path fill-opacity=".06" fill="#803729" d="M492.907 373.065a2.754 2.754 0 01-2.753 2.753h-33.04a2.753 2.753 0 01-2.752-2.753v-33.039a2.753 2.753 0 012.752-2.753h33.04a2.751 2.751 0 012.753 2.753v33.039z"/>
  <path fill-opacity=".17" fill="#946A59" d="M637.452 373.065a2.754 2.754 0 01-2.753 2.753H601.66a2.751 2.751 0 01-2.753-2.753v-33.039a2.751 2.751 0 012.753-2.753h33.039a2.751 2.751 0 012.753 2.753v33.039z"/>
  <path fill-opacity=".01" fill="#E5C89E" d="M782 373.065a2.753 2.753 0 01-2.753 2.753h-33.039a2.751 2.751 0 01-2.753-2.753v-33.039a2.754 2.754 0 012.753-2.753h33.039a2.753 2.753 0 012.753 2.753v33.039z"/>
  <path fill-opacity=".06" fill="#803729" d="M300.179 421.248a2.751 2.751 0 01-2.753 2.75h-33.039a2.75 2.75 0 01-2.753-2.75v-33.039a2.753 2.753 0 012.753-2.753h33.039a2.754 2.754 0 012.753 2.753v33.039zM492.907 421.248a2.751 2.751 0 01-2.753 2.75h-33.04a2.75 2.75 0 01-2.752-2.75v-33.039a2.753 2.753 0 012.752-2.753h33.04a2.751 2.751 0 012.753 2.753v33.039z"/>
  <path fill-opacity=".01" fill="#E5C89E" d="M541.089 421.248a2.75 2.75 0 01-2.752 2.75h-33.04a2.748 2.748 0 01-2.753-2.75v-33.039a2.754 2.754 0 012.753-2.753h33.04a2.753 2.753 0 012.752 2.753v33.039zM348.361 469.431a2.752 2.752 0 01-2.752 2.749h-33.04a2.75 2.75 0 01-2.752-2.749v-33.043a2.753 2.753 0 012.752-2.753h33.04a2.753 2.753 0 012.752 2.753v33.043z"/>
  <path fill-opacity=".06" fill="#803729" d="M589.272 469.431a2.752 2.752 0 01-2.752 2.749h-33.04a2.75 2.75 0 01-2.752-2.749v-33.043a2.753 2.753 0 012.752-2.753h33.04a2.753 2.753 0 012.752 2.753v33.043z"/>
  <path fill-opacity=".01" fill="#E5C89E" d="M733.814 469.431a2.752 2.752 0 01-2.753 2.749h-33.039a2.752 2.752 0 01-2.753-2.749v-33.043a2.755 2.755 0 012.753-2.753h33.039a2.755 2.755 0 012.753 2.753v33.043zM300.179 517.61a2.751 2.751 0 01-2.753 2.753h-33.039a2.75 2.75 0 01-2.753-2.753v-33.039a2.752 2.752 0 012.753-2.749h33.039a2.753 2.753 0 012.753 2.749v33.039zM444.724 517.61a2.748 2.748 0 01-2.753 2.753h-33.04a2.748 2.748 0 01-2.752-2.753v-33.039a2.752 2.752 0 012.752-2.749h33.04a2.75 2.75 0 012.753 2.749v33.039zM541.089 517.61a2.75 2.75 0 01-2.752 2.753h-33.04a2.748 2.748 0 01-2.753-2.753v-33.039a2.753 2.753 0 012.753-2.749h33.04a2.752 2.752 0 012.752 2.749v33.039z"/>
  <path fill-opacity=".06" fill="#803729" d="M685.634 517.61a2.748 2.748 0 01-2.752 2.753h-33.04a2.748 2.748 0 01-2.752-2.753v-33.039a2.752 2.752 0 012.752-2.749h33.04a2.75 2.75 0 012.752 2.749v33.039z"/>
  <path fill-opacity=".01" fill="#E5C89E" d="M396.544 565.792a2.755 2.755 0 01-2.752 2.753h-33.04a2.753 2.753 0 01-2.753-2.753v-33.039a2.754 2.754 0 012.753-2.753h33.04a2.75 2.75 0 012.752 2.753v33.039z"/>
</svg>