<?xml version="1.0" encoding="UTF-8" standalone="no"?>
<svg
   xmlns:dc="http://purl.org/dc/elements/1.1/"
   xmlns:cc="http://creativecommons.org/ns#"
   xmlns:rdf="http://www.w3.org/1999/02/22-rdf-syntax-ns#"
   xmlns:svg="http://www.w3.org/2000/svg"
   xmlns="http://www.w3.org/2000/svg"
   xmlns:sodipodi="http://sodipodi.sourceforge.net/DTD/sodipodi-0.dtd"
   xmlns:inkscape="http://www.inkscape.org/namespaces/inkscape"
   sodipodi:docname="belægningsklinker.svg"
   inkscape:version="1.0 (4035a4fb49, 2020-05-01)"
   id="svg8"
   version="1.1"
   viewBox="0 0 210 297"
   height="297mm"
   width="210mm">
  <defs
     id="defs2">
    <filter
       height="1.0000864"
       y="-4.32e-05"
       width="1.0000864"
       x="-4.32e-05"
       id="filter857"
       style="color-interpolation-filters:sRGB"
       inkscape:collect="always">
      <feGaussianBlur
         id="feGaussianBlur859"
         stdDeviation="0.00071777678"
         inkscape:collect="always" />
    </filter>
  </defs>
  <sodipodi:namedview
     inkscape:window-maximized="1"
     inkscape:window-y="-8"
     inkscape:window-x="-8"
     inkscape:window-height="1027"
     inkscape:window-width="2560"
     showgrid="false"
     inkscape:document-rotation="0"
     inkscape:current-layer="layer1"
     inkscape:document-units="mm"
     inkscape:cy="440.51638"
     inkscape:cx="451.49832"
     inkscape:zoom="3.132152"
     inkscape:pageshadow="2"
     inkscape:pageopacity="0.0"
     borderopacity="1.0"
     bordercolor="#666666"
     pagecolor="#ffffff"
     id="base" />
  <metadata
     id="metadata5">
    <rdf:RDF>
      <cc:Work
         rdf:about="">
        <dc:format>image/svg+xml</dc:format>
        <dc:type
           rdf:resource="http://purl.org/dc/dcmitype/StillImage" />
        <dc:title></dc:title>
      </cc:Work>
    </rdf:RDF>
  </metadata>
  <g
     style="filter:url(#filter857);opacity:1"
     id="layer1"
     inkscape:groupmode="layer"
     inkscape:label="Layer 1">
    <path
       d="m 53.857333,40.838694 a 19.938243,19.938243 0 0 0 -19.907313,19.938318 19.938243,19.938243 0 0 0 1.422654,7.396964 19.938244,19.938244 0 0 0 -17.014465,19.722829 19.938244,19.938244 0 0 0 19.938314,19.938315 19.938244,19.938244 0 0 0 6.43992,-1.06867 19.938243,19.938243 0 0 0 17.08939,9.66762 19.938243,19.938243 0 0 0 19.937802,-19.938305 19.938243,19.938243 0 0 0 -5.1e-4,-0.0966 19.938243,19.938243 0 0 0 7.74939,-15.77836 19.938243,19.938243 0 0 0 -15.689482,-19.479951 19.938243,19.938243 0 0 0 0.003,-0.363802 19.938243,19.938243 0 0 0 -19.93779,-19.938318 19.938243,19.938243 0 0 0 -0.031,0 z"
       style="opacity:0.460784;fill:#89a02c;fill-opacity:1;stroke-width:2.64599;stroke-linecap:square;stroke-miterlimit:4;stroke-dasharray:none"
       id="path835" />
    <path
       d="m 55.966903,78.258153 a 1.984375,1.984375 0 0 0 -1.98438,1.984375 v 7.992796 l -11.23859,-6.143297 a 1.984375,1.984375 0 0 0 -1.02526,-0.242361 1.984375,1.984375 0 0 0 -1.66605,1.031462 1.984375,1.984375 0 0 0 0.7891,2.693374 l 13.1408,7.183024 v 37.695894 a 1.984375,1.984375 0 0 0 1.98438,1.98437 1.984375,1.984375 0 0 0 1.98437,-1.98437 v -23.13864 a 1.984375,1.984375 0 0 0 0.0176,-0.0139 l 16.63051,-13.41784 a 1.984375,1.984375 0 0 0 0.29921,-2.791045 1.984375,1.984375 0 0 0 -1.55081,-0.738457 1.984375,1.984375 0 0 0 -1.24024,0.439767 L 57.951273,102.21431 V 91.619612 a 1.984375,1.984375 0 0 0 0,-0.08113 V 80.242528 a 1.984375,1.984375 0 0 0 -1.98437,-1.984375 z"
       style="color:#000000;font-style:normal;font-variant:normal;font-weight:normal;font-stretch:normal;font-size:medium;line-height:normal;font-family:sans-serif;font-variant-ligatures:normal;font-variant-position:normal;font-variant-caps:normal;font-variant-numeric:normal;font-variant-alternates:normal;font-variant-east-asian:normal;font-feature-settings:normal;font-variation-settings:normal;text-indent:0;text-align:start;text-decoration:none;text-decoration-line:none;text-decoration-style:solid;text-decoration-color:#000000;letter-spacing:normal;word-spacing:normal;text-transform:none;writing-mode:lr-tb;direction:ltr;text-orientation:mixed;dominant-baseline:auto;baseline-shift:baseline;text-anchor:start;white-space:normal;shape-padding:0;shape-margin:0;inline-size:0;clip-rule:nonzero;display:inline;overflow:visible;visibility:visible;opacity:1;isolation:auto;mix-blend-mode:normal;color-interpolation:sRGB;color-interpolation-filters:linearRGB;solid-color:#000000;solid-opacity:1;vector-effect:none;fill:#803300;fill-opacity:1;fill-rule:nonzero;stroke:none;stroke-width:3.96875;stroke-linecap:round;stroke-linejoin:miter;stroke-miterlimit:4;stroke-dasharray:none;stroke-dashoffset:0;stroke-opacity:1;color-rendering:auto;image-rendering:auto;shape-rendering:auto;text-rendering:auto;enable-background:accumulate;stop-color:#000000;stop-opacity:1"
       id="path927" />
    <path
       id="path2907"
       d="m 99.425118,134.98839 c 0,-31.84644 0,-32.01539 0,-32.01539"
       style="fill:none;stroke:#000000;stroke-width:10;stroke-linecap:butt;stroke-linejoin:miter;stroke-opacity:1;stroke-miterlimit:4;stroke-dasharray:none" />
  </g>
</svg>
